<svg width="24" height="24" viewBox="0 0 24 24" fill="none" xmlns="http://www.w3.org/2000/svg">
<path d="M15.3333 11.5263V5.84211L12.5 3L9.66667 5.84211V7.73684H4V21H21V11.5263H15.3333ZM7.77778 19.1053H5.88889V17.2105H7.77778V19.1053ZM7.77778 15.3158H5.88889V13.4211H7.77778V15.3158ZM7.77778 11.5263H5.88889V9.63158H7.77778V11.5263ZM13.4444 19.1053H11.5556V17.2105H13.4444V19.1053ZM13.4444 15.3158H11.5556V13.4211H13.4444V15.3158ZM13.4444 11.5263H11.5556V9.63158H13.4444V11.5263ZM13.4444 7.73684H11.5556V5.84211H13.4444V7.73684ZM19.1111 19.1053H17.2222V17.2105H19.1111V19.1053ZM19.1111 15.3158H17.2222V13.4211H19.1111V15.3158Z" fill="white"/>
</svg>
