<svg width="24" height="24" viewBox="0 0 24 24" fill="none" xmlns="http://www.w3.org/2000/svg">
<path d="M13.1582 10.8422C12.5439 10.2281 11.7108 9.88318 10.8422 9.88318C9.97361 9.88318 9.14055 10.2281 8.52622 10.8422L6.20947 13.1582C5.59513 13.7726 5.25 14.6058 5.25 15.4746C5.25 16.3434 5.59513 17.1766 6.20947 17.791C6.82381 18.4053 7.65704 18.7504 8.52585 18.7504C9.39466 18.7504 10.2279 18.4053 10.8422 17.791L12.0002 16.633" stroke="white" stroke-width="2" stroke-linecap="round" stroke-linejoin="round"/>
<path d="M10.8422 13.1582C11.4566 13.7723 12.2896 14.1173 13.1582 14.1173C14.0268 14.1173 14.8599 13.7723 15.4742 13.1582L17.791 10.8422C18.4053 10.2279 18.7504 9.39466 18.7504 8.52585C18.7504 7.65704 18.4053 6.82381 17.791 6.20947C17.1766 5.59513 16.3434 5.25 15.4746 5.25C14.6058 5.25 13.7726 5.59513 13.1582 6.20947L12.0002 7.36747" stroke="white" stroke-width="2" stroke-linecap="round" stroke-linejoin="round"/>
</svg>
