<svg width="24" height="24" viewBox="0 0 24 24" fill="none" xmlns="http://www.w3.org/2000/svg">
<path d="M2.90922 9.44336C2.90681 9.59079 2.94927 9.73546 3.03097 9.8582C3.11267 9.98094 3.22974 10.076 3.36667 10.1306L10.3492 12.9241L13.1427 19.9074C13.1966 20.0424 13.2899 20.1582 13.4103 20.2398C13.5307 20.3213 13.6729 20.3649 13.8183 20.3648H13.8299C13.9772 20.3625 14.1204 20.3155 14.2404 20.23C14.3604 20.1446 14.4516 20.0247 14.5019 19.8863L20.3201 3.88627C20.3678 3.75611 20.3772 3.61504 20.3473 3.4797C20.3175 3.34435 20.2496 3.22035 20.1516 3.1223C20.0536 3.02426 19.9297 2.95625 19.7944 2.92629C19.659 2.89632 19.518 2.90565 19.3878 2.95318L3.38776 8.77136C3.24926 8.82186 3.12936 8.91321 3.04391 9.03333C2.95846 9.15346 2.91149 9.29669 2.90922 9.44409V9.44336Z" fill="white"/>
</svg>
