<svg width="39" height="39" viewBox="0 0 39 39" fill="none" xmlns="http://www.w3.org/2000/svg">
<path d="M17.19 6.91071C17.3484 7.10407 17.4455 7.34072 17.4686 7.59006C17.4918 7.83941 17.44 8.09 17.3199 8.30945C16.3816 10.0399 15.8915 11.9796 15.8949 13.9501C15.8949 20.5053 21.215 25.8134 27.7717 25.8134C28.627 25.8134 29.4596 25.7237 30.2597 25.5525C30.505 25.4992 30.7604 25.5196 30.9942 25.6112C31.228 25.7028 31.4298 25.8616 31.5743 26.0677C31.7268 26.282 31.8046 26.5409 31.7955 26.8042C31.7864 27.0675 31.6909 27.3204 31.524 27.5235C30.2511 29.0941 28.6453 30.3596 26.8236 31.2277C25.002 32.0958 23.0105 32.5446 20.9942 32.5414C13.5124 32.5414 7.45227 26.4867 7.45227 19.0267C7.45227 13.4121 10.8832 8.59638 15.7683 6.55531C16.0116 6.45201 16.2818 6.4308 16.5382 6.49489C16.7945 6.55897 17.0233 6.70488 17.19 6.91071V6.91071Z" fill="#222222"/>
</svg>
