<svg width="38" height="38" viewBox="0 0 38 38" fill="none" xmlns="http://www.w3.org/2000/svg">
<path d="M19 11.0833C14.63 11.0833 11.0834 14.63 11.0834 19C11.0834 23.37 14.63 26.9167 19 26.9167C23.37 26.9167 26.9167 23.37 26.9167 19C26.9167 14.63 23.37 11.0833 19 11.0833ZM3.16671 20.5833H6.33337C7.20421 20.5833 7.91671 19.8708 7.91671 19C7.91671 18.1292 7.20421 17.4167 6.33337 17.4167H3.16671C2.29587 17.4167 1.58337 18.1292 1.58337 19C1.58337 19.8708 2.29587 20.5833 3.16671 20.5833ZM31.6667 20.5833H34.8334C35.7042 20.5833 36.4167 19.8708 36.4167 19C36.4167 18.1292 35.7042 17.4167 34.8334 17.4167H31.6667C30.7959 17.4167 30.0834 18.1292 30.0834 19C30.0834 19.8708 30.7959 20.5833 31.6667 20.5833ZM17.4167 3.16667V6.33334C17.4167 7.20417 18.1292 7.91667 19 7.91667C19.8709 7.91667 20.5834 7.20417 20.5834 6.33334V3.16667C20.5834 2.29584 19.8709 1.58334 19 1.58334C18.1292 1.58334 17.4167 2.29584 17.4167 3.16667ZM17.4167 31.6667V34.8333C17.4167 35.7042 18.1292 36.4167 19 36.4167C19.8709 36.4167 20.5834 35.7042 20.5834 34.8333V31.6667C20.5834 30.7958 19.8709 30.0833 19 30.0833C18.1292 30.0833 17.4167 30.7958 17.4167 31.6667ZM9.48421 7.25167C9.33773 7.10489 9.16374 6.98844 8.9722 6.90898C8.78065 6.82953 8.57532 6.78863 8.36796 6.78863C8.16059 6.78863 7.95526 6.82953 7.76372 6.90898C7.57218 6.98844 7.39819 7.10489 7.25171 7.25167C7.10493 7.39815 6.98848 7.57214 6.90902 7.76368C6.82957 7.95522 6.78867 8.16055 6.78867 8.36792C6.78867 8.57529 6.82957 8.78062 6.90902 8.97216C6.98848 9.1637 7.10493 9.33769 7.25171 9.48417L8.93004 11.1625C9.54754 11.78 10.5609 11.78 11.1625 11.1625C11.7642 10.545 11.78 9.53167 11.1625 8.93L9.48421 7.25167ZM29.07 26.8375C28.9236 26.6907 28.7496 26.5743 28.558 26.4948C28.3665 26.4154 28.1612 26.3745 27.9538 26.3745C27.7464 26.3745 27.5411 26.4154 27.3496 26.4948C27.158 26.5743 26.984 26.6907 26.8375 26.8375C26.6908 26.984 26.5743 27.158 26.4949 27.3495C26.4154 27.5411 26.3745 27.7464 26.3745 27.9538C26.3745 28.1611 26.4154 28.3664 26.4949 28.558C26.5743 28.7495 26.6908 28.9235 26.8375 29.07L28.5159 30.7483C29.1334 31.3658 30.1467 31.3658 30.7484 30.7483C30.8952 30.6019 31.0116 30.4279 31.0911 30.2363C31.1705 30.0448 31.2114 29.8395 31.2114 29.6321C31.2114 29.4247 31.1705 29.2194 31.0911 29.0278C31.0116 28.8363 30.8952 28.6623 30.7484 28.5158L29.07 26.8375ZM30.7484 9.48417C30.8952 9.33769 31.0116 9.1637 31.0911 8.97216C31.1705 8.78062 31.2114 8.57529 31.2114 8.36792C31.2114 8.16055 31.1705 7.95522 31.0911 7.76368C31.0116 7.57214 30.8952 7.39815 30.7484 7.25167C30.6019 7.10489 30.4279 6.98844 30.2364 6.90898C30.0448 6.82953 29.8395 6.78863 29.6321 6.78863C29.4248 6.78863 29.2194 6.82953 29.0279 6.90898C28.8363 6.98844 28.6624 7.10489 28.5159 7.25167L26.8375 8.93C26.22 9.5475 26.22 10.5608 26.8375 11.1625C27.455 11.7642 28.4684 11.78 29.07 11.1625L30.7484 9.48417ZM11.1625 29.07C11.3093 28.9235 11.4258 28.7495 11.5052 28.558C11.5847 28.3664 11.6256 28.1611 11.6256 27.9538C11.6256 27.7464 11.5847 27.5411 11.5052 27.3495C11.4258 27.158 11.3093 26.984 11.1625 26.8375C11.0161 26.6907 10.8421 26.5743 10.6505 26.4948C10.459 26.4154 10.2537 26.3745 10.0463 26.3745C9.83892 26.3745 9.63359 26.4154 9.44205 26.4948C9.25051 26.5743 9.07652 26.6907 8.93004 26.8375L7.25171 28.5158C6.63421 29.1333 6.63421 30.1467 7.25171 30.7483C7.86921 31.35 8.88254 31.3658 9.48421 30.7483L11.1625 29.07Z" fill="#F8F8F8"/>
</svg>
