<svg width="24" height="24" viewBox="0 0 24 24" fill="none" xmlns="http://www.w3.org/2000/svg">
<path d="M21 6.66066C20.3381 6.94128 19.627 7.1309 18.8794 7.2166C19.6508 6.77503 20.2278 6.08003 20.503 5.2613C19.7783 5.67314 18.9851 5.96302 18.158 6.11836C17.6018 5.55017 16.8651 5.17357 16.0623 5.04702C15.2594 4.92047 14.4354 5.05105 13.7181 5.41849C13.0007 5.78594 12.4303 6.36968 12.0953 7.0791C11.7602 7.78852 11.6794 8.58391 11.8652 9.3418C10.3968 9.27126 8.96033 8.90611 7.64898 8.27003C6.33762 7.63395 5.18071 6.74117 4.25332 5.64963C3.93623 6.17297 3.7539 6.77973 3.7539 7.42594C3.75354 8.00767 3.90328 8.58049 4.18981 9.09358C4.47634 9.60667 4.89082 10.0442 5.39646 10.3672C4.81005 10.3494 4.23658 10.1978 3.72377 9.92506V9.97056C3.72371 10.7865 4.0187 11.5773 4.55868 12.2088C5.09865 12.8403 5.85036 13.2736 6.68625 13.4352C6.14226 13.5761 5.57192 13.5968 5.01832 13.4959C5.25416 14.1979 5.71355 14.8118 6.33219 15.2516C6.95082 15.6915 7.69772 15.9352 8.46833 15.9487C7.16018 16.9312 5.54461 17.4642 3.88153 17.4618C3.58693 17.4619 3.29258 17.4455 3 17.4125C4.68813 18.451 6.65322 19.0021 8.66018 19C15.454 19 19.168 13.6165 19.168 8.9474C19.168 8.79571 19.164 8.6425 19.1569 8.49081C19.8793 7.99097 20.5029 7.37201 20.9984 6.66293L21 6.66066Z" fill="white"/>
</svg>
